<?xml version="1.0" encoding="utf-8"?>
<!-- Generator: Adobe Illustrator 26.2.1, SVG Export Plug-In . SVG Version: 6.00 Build 0)  -->
<svg version="1.1" id="Layer_1" xmlns="http://www.w3.org/2000/svg" xmlns:xlink="http://www.w3.org/1999/xlink" x="0px" y="0px"
	 viewBox="0 0 850.39 850.39" style="enable-background:new 0 0 850.39 850.39;" xml:space="preserve">
<style type="text/css">
	.st0{stroke:#000000;stroke-width:2;stroke-miterlimit:10;}
	.st1{stroke:#000000;stroke-width:4;stroke-miterlimit:10;}
</style>
<path class="st0" d="M237.59,128.4c0,11.58-9.39,20.97-20.97,20.97s-20.97-9.39-20.97-20.97s8.8-20.75,20.38-20.75
	C227.61,107.65,237.59,116.81,237.59,128.4z"/>
<path class="st1" d="M215.82,146.54"/>
<rect x="215.82" y="147.42" class="st1" width="2.09" height="89.69"/>
<rect x="181.75" y="183.48" class="st1" width="69.75" height="0.76"/>
<rect x="170.14" y="255.11" transform="matrix(0.7071 -0.7071 0.7071 0.7071 -122.8356 214.2567)" class="st1" width="54.15" height="0.59"/>
<rect x="207.95" y="254.11" transform="matrix(-0.7071 -0.7071 0.7071 -0.7071 221.3176 600.4808)" class="st1" width="54.15" height="0.59"/>
<path class="st0" d="M692.06,154.21c0,11.58-9.39,20.97-20.97,20.97s-20.97-9.39-20.97-20.97c0-11.58,8.8-20.75,20.38-20.75
	S692.06,142.63,692.06,154.21z"/>
<path class="st1" d="M670.29,172.36"/>
<rect x="670.29" y="173.23" class="st1" width="2.09" height="89.69"/>
<rect x="636.22" y="209.29" class="st1" width="69.75" height="0.76"/>
<rect x="624.61" y="280.92" transform="matrix(0.7071 -0.7071 0.7071 0.7071 -7.9757 543.1761)" class="st1" width="54.15" height="0.59"/>
<rect x="662.42" y="279.92" transform="matrix(-0.7071 -0.7071 0.7071 -0.7071 978.8964 965.9034)" class="st1" width="54.15" height="0.59"/>
<path class="st0" d="M474.06,184.87c0,11.58-9.39,20.97-20.97,20.97s-20.97-9.39-20.97-20.97s8.8-20.75,20.38-20.75
	C464.08,164.12,474.06,173.29,474.06,184.87z"/>
<path class="st1" d="M452.29,203.01"/>
<rect x="452.29" y="203.89" class="st1" width="2.09" height="89.69"/>
<rect x="418.22" y="239.95" class="st1" width="69.75" height="0.76"/>
<rect x="406.61" y="311.58" transform="matrix(0.7071 -0.7071 0.7071 0.7071 -93.5057 398.0065)" class="st1" width="54.15" height="0.59"/>
<rect x="444.42" y="310.58" transform="matrix(-0.7071 -0.7071 0.7071 -0.7071 585.0674 864.0921)" class="st1" width="54.15" height="0.59"/>
<path class="st0" d="M473.76,597.81c0,11.58-9.39,20.97-20.97,20.97s-20.97-9.39-20.97-20.97s8.8-20.75,20.38-20.75
	C463.79,577.06,473.76,586.23,473.76,597.81z"/>
<path class="st1" d="M451.99,615.96"/>
<rect x="451.99" y="616.83" class="st1" width="2.09" height="89.69"/>
<rect x="417.92" y="652.89" class="st1" width="69.75" height="0.76"/>
<rect x="406.31" y="724.52" transform="matrix(0.7071 -0.7071 0.7071 0.7071 -385.5865 518.7433)" class="st1" width="54.15" height="0.59"/>
<rect x="444.12" y="723.52" transform="matrix(-0.7071 -0.7071 0.7071 -0.7071 292.565 1568.816)" class="st1" width="54.15" height="0.59"/>
</svg>
